<?xml version="1.0" standalone="no"?>
<!DOCTYPE svg PUBLIC "-//W3C//DTD SVG 20010904//EN"
 "http://www.w3.org/TR/2001/REC-SVG-20010904/DTD/svg10.dtd">
<svg version="1.0" xmlns="http://www.w3.org/2000/svg"
 width="512.000000pt" height="512.000000pt" viewBox="0 0 512.000000 512.000000"
 preserveAspectRatio="xMidYMid meet">

<g transform="translate(0.000000,512.000000) scale(0.100000,-0.100000)"
fill="#000000" stroke="none">
<path d="M780 5020 c-41 -11 -116 -40 -166 -65 -220 -108 -385 -295 -466 -526
l-33 -94 0 -1750 0 -1750 33 -94 c18 -52 44 -112 57 -135 l25 -41 0 57 c0 37
-10 85 -28 135 l-27 78 -3 1715 c-3 1889 -6 1785 58 1926 86 190 289 387 467
454 141 53 51 51 1895 48 l1713 -3 80 -27 c236 -81 462 -307 543 -543 l27 -80
3 -1713 c2 -1844 5 -1754 -48 -1895 -67 -180 -263 -381 -458 -469 -133 -60
-43 -58 -1887 -58 -1891 0 -1761 -5 -1920 74 -78 38 -195 70 -195 53 0 -11
139 -98 196 -123 31 -14 94 -34 140 -45 80 -19 124 -19 1806 -17 l1723 3 90
31 c288 98 522 350 595 638 20 78 20 115 20 1781 0 1673 0 1703 -20 1781 -69
269 -275 505 -536 614 -152 63 -47 60 -1909 59 -1647 0 -1702 -1 -1775 -19z"/>
<path d="M1860 3140 l0 -1300 175 0 175 0 0 620 c0 341 3 620 6 620 3 0 283
-279 621 -620 l615 -620 233 0 234 0 -48 48 c-26 26 -336 337 -689 692 l-641
645 639 600 c351 330 639 603 639 608 1 4 -98 7 -219 7 l-221 0 -267 -252
c-668 -631 -884 -833 -892 -836 -6 -2 -10 200 -10 542 l0 546 -175 0 -175 0 0
-1300z"/>
<path d="M410 1768 c-37 -22 -64 -49 -85 -82 l-30 -49 0 -546 0 -546 28 -48
c36 -61 94 -103 162 -117 37 -8 217 -10 567 -8 504 3 514 3 553 25 47 25 85
64 111 113 18 33 19 70 22 535 2 275 0 524 -3 552 -9 72 -55 140 -120 175
l-50 28 -550 0 -551 0 -54 -32z m1031 -187 c27 -34 24 -75 -7 -100 -24 -19
-40 -21 -185 -21 l-159 0 0 -427 c-1 -335 -3 -432 -14 -445 -17 -23 -62 -39
-91 -32 -56 14 -55 4 -57 470 l-3 429 -161 5 c-141 4 -165 7 -183 24 -29 26
-27 71 4 102 l25 25 406 -3 406 -3 19 -24z"/>
</g>
</svg>
