<svg xmlns="http://www.w3.org/2000/svg" width="532" height="532" viewBox="0 0 532 532" version="1.1">
	<path d="M 81 10.063 C 72.638 12.240, 59.457 18.233, 52.241 23.140 C 45.422 27.777, 32.504 40.499, 27.432 47.572 C 21.543 55.785, 15.447 68.820, 13.010 78.410 C 11.034 86.186, 11 89.312, 11 263.500 C 11 437.542, 11.036 440.820, 13.005 448.590 C 14.108 452.941, 17.143 460.775, 19.749 466 L 24.487 475.500 24.797 469.632 C 25.036 465.106, 24.351 461.445, 21.803 453.632 L 18.500 443.500 18.500 263 L 18.500 82.500 21.306 74.500 C 26.196 60.556, 31.379 52.614, 43.496 40.496 C 55.614 28.379, 63.556 23.196, 77.500 18.306 L 85.500 15.500 262 15.223 C 381.695 15.035, 440.702 15.284, 445.343 15.996 C 454.213 17.358, 465.826 21.887, 474 27.171 C 482.059 32.380, 497.304 47.510, 502.474 55.429 C 504.603 58.690, 507.612 64.375, 509.162 68.063 C 515.299 82.669, 515 72.694, 515 263.108 C 515 454.487, 515.316 444.282, 508.932 459.308 C 500.874 478.276, 481.173 497.948, 462.221 505.952 C 446.864 512.438, 458.696 512.092, 263 511.782 L 85.500 511.500 77.500 508.684 C 73.100 507.135, 66.727 504.322, 63.338 502.434 C 59.172 500.113, 55.872 499, 53.153 499 C 50.940 499, 47.976 498.561, 46.565 498.025 C 42.606 496.519, 43.454 497.509, 50.322 502.410 C 58.801 508.461, 71.756 514.537, 81.410 516.990 C 89.187 518.966, 92.283 519, 265.910 518.983 C 456.724 518.964, 448.296 519.191, 461.916 513.690 C 475.038 508.390, 483.121 502.887, 494.504 491.504 C 505.887 480.121, 511.390 472.038, 516.690 458.916 C 522.191 445.296, 521.964 453.724, 521.983 262.910 C 522 89.283, 521.966 86.187, 519.990 78.410 C 517.785 69.733, 511.892 56.641, 506.860 49.241 C 502.223 42.422, 489.501 29.504, 482.428 24.432 C 474.215 18.543, 461.180 12.447, 451.590 10.010 C 443.809 8.033, 440.783 8.001, 266.090 8.055 C 93.260 8.109, 88.299 8.162, 81 10.063 M 248.405 31.113 C 246.825 32.866, 246.514 34.702, 246.582 41.863 C 246.627 46.614, 246.974 52.814, 247.352 55.643 L 248.041 60.786 242.389 63.976 C 229.990 70.973, 221.374 82.870, 218.918 96.384 C 216.017 112.349, 223.844 128.966, 242.863 147.221 L 252.751 156.712 254.387 177.606 C 255.287 189.098, 256.018 200.220, 256.011 202.321 L 256 206.142 252.553 202.487 C 249.831 199.601, 248.621 198.972, 246.803 199.498 C 243.427 200.475, 239.701 203.341, 238.070 206.213 C 236.795 208.459, 236.870 209.426, 238.762 215.116 C 239.929 218.627, 241.395 224.394, 242.019 227.931 C 242.643 231.467, 244.535 237.092, 246.223 240.431 C 248.408 244.750, 249.422 248.374, 249.739 253 L 250.185 259.500 245.444 265 C 231.438 281.248, 225.055 293.507, 222.979 308.152 C 220.302 327.025, 228.010 342.016, 246.457 353.812 C 250.331 356.289, 253.601 358.383, 253.725 358.465 C 254.126 358.734, 256.937 416.177, 257.104 427.500 L 257.265 438.500 253.383 441.386 C 247.795 445.538, 232.946 452.339, 222.500 455.529 C 212.619 458.547, 210.387 459.960, 211.387 462.565 C 211.949 464.030, 212.967 464.197, 218.273 463.692 C 226.532 462.905, 241.819 458.851, 250.496 455.146 C 254.344 453.504, 257.592 452.258, 257.712 452.379 C 257.833 452.500, 257.420 460.676, 256.793 470.549 C 255.130 496.769, 255.121 496.446, 257.597 496.799 C 260.464 497.209, 270.518 486.252, 273.911 479.019 C 276.365 473.787, 276.500 472.650, 276.500 457.173 L 276.500 440.845 285.696 433.428 C 299.958 421.924, 308.832 409.943, 311.068 399.171 C 314.404 383.103, 303.953 362.856, 284.772 348.228 L 280 344.589 280 335.844 C 280 325.352, 281.339 318.540, 284.982 310.500 C 288.841 301.981, 289.291 299.463, 287.552 296.100 C 286.074 293.242, 280.673 290.466, 278.819 291.612 C 278.224 291.980, 278.114 287.580, 278.525 279.850 L 279.183 267.500 288.406 258.500 C 309.483 237.932, 317.747 222.107, 318.734 200.420 C 319.331 187.311, 318.236 181.253, 313.512 171.528 C 308.154 160.498, 302.390 154.133, 285.247 140.316 L 282.994 138.500 284.650 126.250 L 286.306 114 290.198 114 C 294.283 114, 299 110.591, 299 107.639 C 299 106.694, 299.678 106.365, 300.944 106.695 C 302.181 107.019, 303.815 106.275, 305.444 104.647 C 309.087 101.003, 309.098 91.198, 305.467 83.522 C 302.855 78.001, 291.990 66.766, 288.054 65.517 C 285.529 64.716, 285.527 64.092, 288.013 56.161 C 289.106 52.674, 290 47.645, 290 44.983 C 290 40.898, 289.572 39.808, 287.250 37.977 C 284.453 35.772, 284.088 35.762, 274.361 37.601 C 271.721 38.100, 270.578 37.614, 267.186 34.549 C 260.810 28.788, 251.960 27.169, 248.405 31.113 M 252.482 36.028 C 251.896 36.977, 252.345 44.619, 253.573 54.600 L 254.078 58.700 262.289 58.759 C 266.805 58.791, 272.620 59.484, 275.211 60.299 L 279.922 61.781 281.588 56.140 C 282.504 53.038, 283.487 48.522, 283.773 46.105 L 284.293 41.711 281.396 42.451 C 279.803 42.858, 276.408 43.413, 273.852 43.685 C 269.610 44.136, 268.861 43.870, 265.277 40.631 C 259.848 35.727, 253.975 33.614, 252.482 36.028 M 249.736 67.360 C 226.397 77.193, 218.144 101.286, 230.687 122.967 C 238.030 135.661, 250.869 148.079, 268.500 159.540 C 287.927 172.169, 295.907 184.804, 295.976 203.040 C 296.022 215.425, 291.880 226.101, 283.165 236.060 L 278.500 241.391 278.144 250.363 L 277.788 259.336 281.644 256.250 C 291.232 248.577, 300.584 236.812, 305.997 225.612 C 310.890 215.487, 312.966 206.817, 312.985 196.432 C 313.025 174.944, 302.716 160.286, 272.500 138.867 C 253.379 125.312, 248.773 121.192, 245.584 114.793 C 241.317 106.230, 242.551 99.236, 249.386 93.234 C 256.025 87.405, 261.469 88.850, 273.107 99.529 C 280.138 105.982, 285.299 108.516, 290.044 107.847 C 292.036 107.565, 292.563 106.841, 292.831 104.009 C 293.231 99.794, 294.296 99.011, 298.664 99.720 L 302 100.262 302 95.327 C 302 84.837, 294.711 75.740, 281.035 69.164 C 274.463 66.003, 272.488 65.535, 264.535 65.252 C 256.768 64.976, 254.691 65.272, 249.736 67.360 M 282.065 77.667 C 279.615 79.383, 279.370 83.228, 281.571 85.429 C 283.881 87.738, 286.727 87.346, 288.619 84.459 C 291.777 79.639, 286.724 74.403, 282.065 77.667 M 258.309 98.796 C 258.651 100.505, 259.231 106.548, 259.598 112.225 L 260.265 122.546 268.166 128.312 C 272.511 131.483, 276.448 133.841, 276.916 133.552 C 277.384 133.263, 278.054 130.433, 278.405 127.263 C 278.757 124.093, 279.289 119.449, 279.590 116.941 C 280.087 112.787, 279.911 112.280, 277.609 111.231 C 276.219 110.598, 271.801 107.227, 267.791 103.740 C 257.923 95.157, 257.542 94.959, 258.309 98.796 M 250.116 102.098 C 249.502 103.858, 249 105.951, 249 106.748 C 249 108.572, 252.010 115, 252.864 115 C 253.667 115, 252.724 100.388, 251.866 99.531 C 251.517 99.183, 250.729 100.338, 250.116 102.098 M 260.755 177.801 C 261.485 186.985, 261.909 198.062, 261.697 202.415 C 261.368 209.170, 260.980 210.598, 259.045 212.165 C 255.886 214.723, 255.187 214.535, 251 210 C 246.818 205.470, 246.713 205.430, 244.594 207.549 C 243.196 208.947, 243.237 209.603, 245.021 214.298 C 246.108 217.158, 247.274 221.749, 247.612 224.499 C 247.951 227.250, 249.851 233.100, 251.836 237.500 C 255.265 245.104, 255.479 246.218, 256.148 260 C 256.535 267.975, 257.316 280.575, 257.883 288 C 258.450 295.425, 258.933 307.635, 258.957 315.133 L 259 328.766 266.250 334.358 L 273.500 339.949 274.148 329.725 C 274.785 319.693, 275.637 316.321, 279.970 306.710 C 281.157 304.076, 281.987 300.952, 281.814 299.769 C 281.505 297.651, 281.455 297.658, 278.671 300.246 C 275.710 302.999, 273.385 302.965, 272.631 300.158 C 272.387 299.246, 272.177 285.900, 272.164 270.500 C 272.145 246.786, 272.437 241.022, 274.071 232.843 C 275.132 227.532, 276 220.430, 276 217.061 C 276 213.692, 276.675 209.320, 277.500 207.346 C 279.479 202.611, 279.400 201.460, 276.866 198.032 C 275.054 195.581, 274.833 194.342, 275.407 189.823 C 275.778 186.895, 276.339 181.965, 276.653 178.867 L 277.223 173.234 271.862 169.274 C 268.913 167.097, 264.909 164.367, 262.964 163.208 L 259.428 161.102 260.755 177.801 M 282.084 186.042 C 280.642 192.770, 280.668 193.018, 283.119 195.626 C 285.630 198.300, 285.888 204.376, 283.672 208.676 C 282.848 210.276, 282.062 215.235, 281.859 220.115 L 281.500 228.731 283.635 225.588 C 287.715 219.582, 289.367 213.076, 289.371 203 C 289.375 195.501, 288.901 192.293, 287.123 187.769 C 285.884 184.617, 284.488 181.801, 284.020 181.512 C 283.552 181.223, 282.681 183.261, 282.084 186.042 M 243.725 276.780 C 233.207 290.842, 229.033 301.744, 229.012 315.212 C 228.986 332.344, 235.921 341.090, 260.515 354.938 C 276.872 364.149, 280.555 366.574, 286.336 371.939 C 300.436 385.026, 298.116 404.247, 279.781 426.242 C 277.607 428.850, 275.984 431.453, 276.176 432.028 C 276.629 433.387, 288.169 423.842, 294.229 417.095 C 296.830 414.199, 300.430 408.840, 302.229 405.186 C 306.109 397.305, 306.395 390.013, 303.182 380.894 C 298.963 368.919, 292.474 361.640, 273 347.033 C 254.826 333.401, 249.736 328.768, 246.594 322.994 C 244.104 318.420, 243.830 317.030, 244.155 310.598 C 244.455 304.654, 245.211 301.958, 248.366 295.574 C 251.973 288.276, 252.169 287.413, 251.542 281.647 C 251.174 278.266, 250.564 274.051, 250.186 272.280 L 249.500 269.060 243.725 276.780 M 250.453 307.464 C 249.661 312.745, 250.398 318.806, 252.029 320.414 C 252.830 321.204, 252.940 319.048, 252.432 312.500 C 252.048 307.550, 251.603 303.346, 251.442 303.158 C 251.281 302.970, 250.836 304.908, 250.453 307.464 M 50.326 345.020 C 48.031 345.487, 44.820 346.559, 43.191 347.401 C 38.908 349.616, 32.542 357.249, 31.176 361.807 C 29.515 367.352, 29.515 470.648, 31.176 476.193 C 32.720 481.346, 38.938 488.308, 44.327 490.916 C 48.536 492.954, 49.889 493, 105.566 492.978 C 169.658 492.953, 166.944 493.257, 174.109 485.310 C 181.251 477.387, 181.098 478.948, 180.782 417.500 C 180.523 366.923, 180.356 362.210, 178.704 358.892 C 176.344 354.154, 171.579 349.361, 166.553 346.670 C 162.550 344.527, 161.840 344.498, 108.500 344.336 C 78.800 344.245, 52.622 344.553, 50.326 345.020 M 260.483 364.736 C 262.747 378.996, 264.440 472.150, 262.604 481.486 C 261.822 485.466, 261.824 485.469, 263.885 483.604 C 265.021 482.576, 266.967 479.658, 268.210 477.118 C 270.402 472.641, 270.473 471.568, 270.544 442 C 270.608 415.261, 270.885 410.020, 272.788 399.500 C 273.982 392.900, 274.967 383.675, 274.977 379 L 274.996 370.500 270.748 367.863 C 268.412 366.412, 265.047 364.494, 263.272 363.599 L 260.044 361.972 260.483 364.736 M 62.364 366.170 C 60.226 367.205, 58 370.912, 58 373.436 C 58 374.174, 58.859 375.841, 59.909 377.139 C 61.751 379.417, 62.432 379.518, 79.159 380 L 96.500 380.500 96.743 425.500 C 96.984 469.969, 97.011 470.521, 99.104 472.250 C 102.227 474.831, 107.590 474.501, 110.545 471.545 L 113 469.091 113 424.545 L 113 380 128.953 380 C 138.747 380, 145.870 379.561, 147.403 378.862 C 152.289 376.636, 152.535 369.889, 147.849 366.607 C 145.830 365.192, 140.705 365.008, 105.027 365.068 C 79.300 365.111, 63.720 365.513, 62.364 366.170 M 281 382.589 C 281 386.213, 280.073 394.552, 278.939 401.120 C 277.805 407.687, 277.018 414.510, 277.189 416.281 L 277.500 419.500 280.953 414.524 C 290.406 400.905, 291.643 386.839, 284.144 378.250 C 283.063 377.012, 281.914 376, 281.590 376 C 281.265 376, 281 378.965, 281 382.589" stroke="none" fill="black" fill-rule="evenodd"/>
</svg>