<svg xmlns="http://www.w3.org/2000/svg" width="532" height="532" viewBox="0 0 532 532" version="1.1">
	<path d="M 76.486 2.461 C 58.755 6.345, 43.851 14.976, 29 29.960 C 16.663 42.408, 10.468 52.079, 5.120 67.238 L 1.500 77.500 1.500 266 L 1.500 454.500 3.845 462 C 5.136 466.125, 7.651 472.669, 9.434 476.542 C 11.218 480.416, 12.987 485.519, 13.365 487.884 C 14.336 493.953, 17.424 499.510, 23.246 505.666 C 28.229 510.935, 38.418 517, 42.287 517 C 43.369 517, 47.466 518.773, 51.392 520.940 C 55.318 523.108, 62.798 526.370, 68.015 528.190 L 77.500 531.500 263.240 531.765 C 466.556 532.056, 454.272 532.391, 470.541 526.117 C 481.836 521.761, 493.024 514.127, 503.575 503.575 C 514.127 493.024, 521.761 481.836, 526.117 470.541 C 532.391 454.272, 532.056 466.556, 531.765 263.240 L 531.500 77.500 527.880 67.238 C 522.412 51.739, 516.364 42.382, 503.491 29.509 C 490.618 16.636, 481.261 10.588, 465.762 5.120 L 455.500 1.500 269 1.322 C 117.912 1.177, 81.358 1.393, 76.486 2.461 M 80.763 9.024 C 50.086 14.248, 20.919 40.951, 10.844 73.035 L 8.500 80.500 8.500 266 C 8.500 427.778, 8.692 452.203, 10 457 C 11.396 462.120, 11.535 458.738, 12 408 L 12.500 353.500 15.234 347.664 C 18.924 339.788, 23.003 334.856, 29.265 330.700 C 39.352 324.005, 39.406 324, 98.537 324 L 151.711 324 158.391 317.879 L 165.072 311.757 164.431 306.090 L 163.790 300.423 174.408 292.211 C 180.248 287.695, 185.303 284, 185.643 284 C 185.982 284, 190.364 288.174, 195.380 293.275 C 211.413 309.579, 229.057 319.261, 251.500 324.070 C 261.322 326.175, 284.877 325.688, 295 323.171 C 315.787 318.002, 331.927 308.950, 346.511 294.284 C 349.674 291.103, 352.930 287.488, 353.746 286.250 C 354.562 285.012, 355.575 284, 355.996 284 C 356.417 284, 361.804 287.649, 367.967 292.108 L 379.171 300.217 378.513 305.888 L 377.855 311.560 382.677 315.898 C 392.206 324.468, 401 333.235, 401 334.163 C 401 334.747, 395.726 334.838, 387.250 334.402 L 373.500 333.694 365.628 329.347 C 361.299 326.956, 357.369 325, 356.896 325 C 356.422 325, 352.315 327.523, 347.767 330.606 C 328.104 343.939, 310.204 350.495, 284.902 353.632 C 272.083 355.221, 270.508 355.218, 257.402 353.583 C 231.054 350.295, 210.600 342.486, 192.262 328.712 C 188.926 326.207, 186.428 325.006, 185.384 325.406 C 184.154 325.878, 185.229 326.995, 189.692 329.879 C 196.515 334.289, 201.965 340.497, 205.231 347.580 L 207.500 352.500 207.500 421 L 207.500 489.500 204.797 495.268 C 201.347 502.630, 193.182 510.792, 185.500 514.558 L 179.500 517.500 121 518 L 62.500 518.500 71 521.500 L 79.500 524.500 266 524.500 L 452.500 524.500 459.965 522.156 C 489.246 512.961, 512.961 489.246, 522.156 459.965 L 524.500 452.500 524.500 266.500 L 524.500 80.500 522.156 73.035 C 513.035 43.987, 490.105 20.866, 460.500 10.865 L 453.500 8.500 269.500 8.359 C 168.300 8.281, 83.369 8.580, 80.763 9.024 M 269.714 14.619 C 269.321 15.012, 269 16.383, 269 17.667 C 269 19.674, 268.503 20, 265.440 20 C 261.937 20, 261.884 20.061, 262.190 23.750 C 262.473 27.174, 262.783 27.527, 265.750 27.813 C 270.392 28.261, 270.297 32.037, 265.574 34.824 C 258.511 38.991, 256.171 46.973, 260.009 53.802 C 261.244 56, 263.323 58.370, 264.628 59.068 C 267.870 60.804, 267.631 62.386, 264.250 61.567 C 262.738 61.200, 256.660 60.640, 250.745 60.322 C 238.429 59.659, 233.026 60.749, 226.997 65.117 C 224.319 67.057, 220.953 68.285, 216.295 69.022 C 195.328 72.339, 186.518 77.212, 183.589 87.114 C 182.486 90.842, 182.532 92.526, 183.896 98.341 C 185.571 105.486, 187.478 108.234, 205.275 129.159 L 211.050 135.949 215.675 132.418 C 223.512 126.436, 231.892 122.824, 246 119.348 C 256.550 116.749, 290.374 116.748, 300 119.348 C 315.305 123.480, 323.611 127.148, 331.099 133.078 L 335.160 136.295 337.496 133.897 C 338.781 132.579, 344.603 125.650, 350.433 118.500 C 361.923 104.411, 363.433 101.257, 363.452 91.320 C 363.462 85.905, 363.084 84.672, 360.395 81.349 C 355.487 75.285, 346.384 71.538, 330.336 68.974 C 326.162 68.307, 322.378 67.009, 320.521 65.606 C 314.124 60.774, 309.025 59.671, 296.247 60.353 C 289.786 60.698, 282.925 61.255, 281 61.590 L 277.500 62.201 281.276 59.006 C 285.044 55.818, 288 50.469, 288 46.838 C 288 43.344, 283.944 36.900, 280.446 34.836 C 276.497 32.506, 275.490 28, 278.918 28 C 282.743 28, 284 26.860, 284 23.393 C 284 20.194, 283.803 20, 280.566 20 C 277.564 20, 277.093 19.655, 276.816 17.250 C 276.558 15.005, 275.943 14.445, 273.464 14.203 C 271.794 14.039, 270.107 14.227, 269.714 14.619 M 271 19 C 271 21.762, 270.722 22, 267.500 22 C 265.056 22, 264 22.452, 264 23.500 C 264 24.548, 265.056 25, 267.500 25 C 270.833 25, 271 25.167, 271 28.500 C 271 30.944, 271.452 32, 272.500 32 C 273.413 32, 274 31.069, 274 29.622 C 274 26.836, 275.555 25.327, 278.922 24.846 C 282.958 24.269, 282.669 22, 278.558 22 C 275.349 22, 274.884 21.668, 274.350 19 C 274.020 17.350, 273.131 16, 272.375 16 C 271.514 16, 271 17.121, 271 19 M 264.608 38.665 C 261.372 41.901, 261.694 43.500, 265.583 43.500 C 268.232 43.500, 268.529 43.155, 268.810 39.750 C 269.178 35.309, 268.213 35.060, 264.608 38.665 M 277.184 39.650 C 277.474 43.185, 277.766 43.526, 280.750 43.813 C 284.666 44.191, 285.082 42.322, 281.750 39.323 C 277.433 35.436, 276.841 35.479, 277.184 39.650 M 262.719 51.615 C 261.722 52.611, 264.819 56.597, 267.561 57.846 C 272.152 59.938, 276.632 59.262, 280.462 55.899 C 282.404 54.194, 283.743 52.394, 283.438 51.899 C 282.821 50.902, 263.694 50.639, 262.719 51.615 M 236.500 62.864 C 228.909 64.892, 224 69.393, 224 74.326 C 224 77.982, 228.658 76.694, 231.236 72.325 C 232.339 70.456, 234.478 68.287, 235.991 67.505 C 239.891 65.488, 250.320 64.624, 260.513 65.473 C 267.898 66.088, 269.316 66.492, 269.736 68.100 C 270.097 69.478, 271.131 70, 273.500 70 C 275.869 70, 276.903 69.478, 277.264 68.100 C 277.684 66.492, 279.102 66.088, 286.487 65.473 C 296.940 64.602, 307.378 65.520, 310.938 67.623 C 312.364 68.465, 314.540 70.694, 315.775 72.577 C 318.530 76.780, 323 77.472, 323 73.696 C 323 70.382, 317.111 65.139, 311.488 63.446 C 303.770 61.123, 285.039 62.059, 276.322 65.204 C 273.744 66.133, 272.138 66.024, 267.822 64.622 C 261.901 62.699, 241.419 61.550, 236.500 62.864 M 271.750 62.662 C 272.438 62.940, 273.563 62.940, 274.250 62.662 C 274.938 62.385, 274.375 62.158, 273 62.158 C 271.625 62.158, 271.063 62.385, 271.750 62.662 M 241.655 67.985 C 238.991 68.467, 235.953 69.637, 234.905 70.586 C 232.474 72.786, 232.375 75.332, 234.750 74.584 C 238.738 73.330, 247.087 72.109, 256.277 71.437 C 264.759 70.817, 268.193 69.859, 266.828 68.495 C 265.929 67.595, 246.039 67.193, 241.655 67.985 M 284.686 67.738 C 281.529 67.985, 280.008 68.525, 280.269 69.307 C 280.521 70.067, 285.353 70.906, 293.583 71.618 C 300.687 72.232, 308.188 73.209, 310.250 73.787 C 314.622 75.013, 314.969 74.259, 311.520 71.019 C 307.844 67.565, 299.661 66.564, 284.686 67.738 M 212 71.705 C 206.017 72.739, 196.036 76.175, 192.926 78.271 C 187.705 81.789, 185 86.505, 185 92.089 C 185 97.721, 185.711 98.462, 188.755 95.997 C 190.231 94.802, 191 93.089, 191 90.994 C 191 83.654, 198.142 78.296, 213.715 73.953 C 217.997 72.759, 221.688 71.606, 221.917 71.391 C 222.439 70.901, 215.354 71.125, 212 71.705 M 335.543 74.748 C 341.616 76.849, 348.036 79.601, 349.808 80.863 C 353.253 83.316, 356 87.714, 356 90.776 C 356 91.807, 357.082 93.668, 358.405 94.911 L 360.811 97.171 361.486 95.043 C 362.579 91.599, 361.006 85.161, 358.280 81.921 C 353.898 76.713, 343.057 72.680, 330.164 71.462 C 324.692 70.945, 324.874 71.056, 335.543 74.748 M 269.223 75.557 C 266.485 77.474, 266.449 78.484, 269 81.727 C 270.993 84.260, 271.780 90, 270.135 90 C 269.659 90, 268.084 89.067, 266.634 87.927 C 262.046 84.317, 258.941 86.646, 260.430 92.579 C 261.176 95.548, 263.221 95.644, 267.632 92.918 C 269.772 91.596, 271 91.276, 271 92.041 C 271 92.942, 271.342 92.961, 272.359 92.117 C 273.396 91.256, 274.320 91.464, 276.266 92.995 C 279.634 95.644, 281.803 95.527, 283.124 92.626 C 283.909 90.904, 283.894 89.670, 283.068 88.126 C 281.653 85.482, 280.598 85.467, 276.446 88.033 L 273.156 90.067 272.489 87.966 C 272.035 86.535, 272.690 84.556, 274.546 81.751 L 277.269 77.636 275.024 75.818 C 272.295 73.608, 272.022 73.596, 269.223 75.557 M 211 76.901 C 200.901 80.568, 198.167 82.012, 195.644 85.011 C 194.190 86.739, 193 88.976, 193 89.981 C 193 91.504, 194.311 91.020, 200.886 87.069 C 205.223 84.462, 211.523 81.300, 214.886 80.043 C 218.307 78.763, 221 77.149, 221 76.378 C 221 74.573, 216.808 74.793, 211 76.901 M 326.177 76.635 C 326.378 77.653, 329.710 79.497, 335 81.517 C 339.675 83.302, 345.637 85.906, 348.250 87.302 C 353.222 89.960, 354.276 89.267, 351.434 85.209 C 349.517 82.472, 343.950 79.556, 335.713 76.974 C 327.995 74.554, 325.749 74.474, 326.177 76.635 M 225.924 83.141 C 224.924 85.011, 225.219 85.686, 228.252 88.465 L 231.726 91.647 232.863 88.502 C 233.488 86.773, 234 84.377, 234 83.179 C 234 81.360, 233.428 81, 230.535 81 C 228.018 81, 226.757 81.585, 225.924 83.141 M 312.745 82.250 C 312.488 82.938, 312.633 84.400, 313.068 85.500 C 313.503 86.600, 313.891 88.702, 313.930 90.172 L 314 92.843 317.990 88.893 C 321.496 85.421, 321.831 84.703, 320.750 82.971 C 319.351 80.732, 313.512 80.206, 312.745 82.250 M 237.167 92.063 C 235.884 93.687, 234.422 94.761, 233.917 94.449 C 233.413 94.137, 233 94.410, 233 95.054 C 233 95.843, 231.935 96.016, 229.750 95.582 C 223.826 94.407, 222.771 94.486, 221.677 96.185 C 220.875 97.431, 220.950 98.538, 221.965 100.435 C 223.699 103.675, 226.648 103.717, 229.149 100.537 C 231.410 97.664, 236.410 96.445, 240.133 97.861 C 244.579 99.551, 247.017 94.159, 243.429 90.571 C 241.210 88.353, 239.840 88.680, 237.167 92.063 M 302.632 91.115 C 301.185 93.181, 301.377 95.290, 303.231 97.694 C 303.909 98.573, 304.771 98.606, 306.499 97.818 C 309.965 96.239, 315.726 97.653, 317.623 100.547 C 319.538 103.471, 322.063 103.693, 324.373 101.140 C 325.723 99.649, 325.849 98.733, 325.011 96.528 C 324.155 94.279, 323.557 93.905, 321.732 94.482 C 316.923 96.002, 314 96.218, 314 95.054 C 314 94.410, 313.546 94.163, 312.990 94.506 C 312.435 94.849, 310.820 93.751, 309.401 92.065 C 306.367 88.459, 304.660 88.219, 302.632 91.115 M 270.648 96.266 C 269.503 100.829, 264.709 104.581, 258.410 105.847 C 247.136 108.111, 242.242 107.309, 236.887 102.322 L 234.274 99.888 233.637 103.867 C 232.500 110.981, 226.895 115.600, 215.186 119.075 C 211.666 120.119, 210.192 120.115, 207.186 119.055 C 199.069 116.190, 197.474 112, 204.500 112 C 208.878 112, 209 111.915, 209 108.860 C 209 105.799, 206.821 103.099, 204.297 103.032 C 203.635 103.014, 202.346 104.575, 201.433 106.500 C 198.567 112.539, 196 110.661, 196 102.525 C 196 97.634, 194.430 96.391, 190.507 98.179 C 185.223 100.586, 186.662 103.855, 199.855 119.422 C 201.860 121.787, 205.204 125.802, 207.286 128.345 L 211.072 132.967 216.786 129.097 C 225.116 123.455, 232.472 120.387, 245 117.330 C 255.747 114.708, 290.321 114.685, 300.500 117.294 C 311.338 120.072, 322.911 124.861, 329.449 129.272 L 335.397 133.287 338.254 129.893 C 351.614 114.022, 360.119 102.753, 359.653 101.538 C 359.353 100.756, 357.982 99.379, 356.608 98.478 C 352.651 95.886, 350.658 97.685, 350.567 103.929 C 350.464 111.049, 348.178 112.489, 345.712 106.988 C 343.821 102.771, 343.042 102.372, 339.934 104.035 C 338.593 104.753, 338 106.133, 338 108.535 C 338 111.983, 338.022 112, 342.573 112 C 346.363 112, 347.090 112.295, 346.815 113.723 C 346.399 115.882, 339.342 119.962, 335.986 119.984 C 332.746 120.005, 323.225 116.535, 320 114.159 C 316.304 111.435, 313 106.098, 313 102.852 C 313 99.483, 311.980 99.201, 310.186 102.074 C 308.203 105.248, 302.323 107.224, 295.173 107.116 C 283.397 106.940, 276.517 103.864, 273.130 97.263 L 271.296 93.686 270.648 96.266 M 256 123.456 C 254.625 124.266, 251.345 124.945, 248.710 124.965 C 243.675 125.002, 238.287 127.228, 233.384 131.297 C 231.798 132.614, 229.061 133.969, 227.303 134.310 C 220.682 135.592, 216.972 137.822, 215.467 141.425 C 214.322 144.165, 213.174 145.145, 210.162 145.956 C 205.997 147.078, 203.634 149.195, 202.539 152.788 C 202.155 154.046, 200.086 156.183, 197.941 157.537 C 193.969 160.045, 188.027 168.887, 188.009 172.317 C 188.004 173.317, 186.494 175.567, 184.652 177.317 C 180.452 181.311, 178.884 184.250, 178.786 188.313 C 178.743 190.066, 177.886 192.558, 176.880 193.851 C 174.440 196.991, 173.676 201.618, 174.784 206.541 C 175.515 209.787, 175.330 211.259, 173.847 214.025 C 171.637 218.146, 171.505 221.880, 173.409 226.437 C 174.198 228.324, 174.780 232.826, 174.731 236.655 C 174.672 241.268, 175.191 244.543, 176.322 246.700 C 177.245 248.461, 178 251.217, 178 252.825 C 178 258.333, 179.234 261.914, 182.441 265.706 C 184.205 267.793, 186.237 271.638, 186.955 274.251 C 187.876 277.603, 189.474 280.094, 192.380 282.707 C 194.646 284.745, 197.082 287.768, 197.794 289.426 C 198.506 291.084, 199.845 293.276, 200.770 294.298 C 202.413 296.114, 209.957 300, 211.838 300 C 212.359 300, 213.036 300.651, 213.342 301.448 C 214.093 303.406, 218.389 305.470, 224.902 307.002 C 228.218 307.782, 231.451 309.369, 233.277 311.114 C 234.914 312.679, 237.880 314.222, 239.876 314.548 C 241.869 314.873, 245.136 316.007, 247.136 317.069 C 251.306 319.283, 254.264 319.437, 258.435 317.657 C 260.935 316.591, 261.895 316.672, 264.897 318.202 C 269.294 320.444, 270.465 320.426, 275.727 318.037 C 278.162 316.932, 280.201 316.517, 280.536 317.059 C 280.856 317.577, 283.246 318, 285.847 318 C 289.601 318, 291.289 317.403, 294.038 315.102 C 297.147 312.500, 298.029 312.259, 302.691 312.736 C 306.840 313.161, 308.607 312.840, 311.498 311.134 C 313.487 309.960, 315.754 309, 316.537 309 C 320.425 309, 325.683 305.709, 328.500 301.513 C 330.218 298.954, 332.289 297.035, 333.346 297.022 C 336.969 296.979, 341.103 293.488, 343.618 288.349 C 345.357 284.793, 347.078 282.796, 349.137 281.943 C 352.561 280.525, 357 274.567, 357 271.390 C 357 270.210, 357.752 268.627, 358.671 267.872 C 359.590 267.118, 361.615 264.499, 363.171 262.054 C 365.340 258.645, 366 256.400, 366 252.427 C 366 249.225, 366.531 246.804, 367.389 246.092 C 369.520 244.324, 371.090 236.799, 370.070 233.243 C 369.409 230.940, 369.593 229.599, 370.806 227.867 C 371.933 226.258, 372.385 223.584, 372.301 219.030 C 372.235 215.438, 372.150 209.682, 372.113 206.238 C 372.044 199.857, 369.199 191.240, 366.390 188.909 C 365.626 188.274, 365 186.400, 365 184.744 C 365 179.613, 362.741 173.868, 359.896 171.765 C 358.356 170.626, 356.921 168.394, 356.588 166.617 C 355.888 162.889, 351.856 158.264, 347.830 156.570 C 346.240 155.902, 344.119 153.813, 343.118 151.927 C 341.144 148.213, 336.140 144.316, 332.059 143.315 C 330.652 142.969, 327.371 140.784, 324.770 138.458 C 321.954 135.941, 318.596 133.959, 316.472 133.561 C 314.510 133.193, 310.865 131.453, 308.372 129.696 C 304.522 126.982, 302.897 126.482, 297.595 126.379 C 294.161 126.313, 290.260 125.652, 288.926 124.911 C 287.566 124.156, 282.766 123.450, 278 123.303 C 273.325 123.160, 267.025 122.804, 264 122.513 C 260.146 122.142, 257.752 122.424, 256 123.456 M 256.241 125.995 C 254.133 127.280, 252.101 129.906, 250.491 133.427 C 249.121 136.422, 248 139.077, 248 139.328 C 248 140.485, 252.986 140.843, 256.314 139.924 C 258.987 139.186, 261.417 137.210, 265.113 132.769 C 269.860 127.064, 270.092 126.541, 268.418 125.317 C 265.786 123.392, 259.980 123.715, 256.241 125.995 M 274.915 126.485 C 272.656 127.714, 265 136.057, 265 137.290 C 265 138.335, 272.879 138.895, 275.799 138.058 C 278.888 137.172, 289 129.423, 289 127.941 C 289 126.885, 283.196 124.992, 280.101 125.040 C 278.670 125.062, 276.337 125.712, 274.915 126.485 M 240.104 129.010 C 233.309 132.802, 231 135.898, 231 141.218 C 231 144.605, 231.452 146.236, 232.502 146.639 C 235.069 147.624, 239.182 146.017, 242.107 142.886 C 244.808 139.994, 250 130.244, 250 128.062 C 250 126.355, 243.797 126.949, 240.104 129.010 M 292.500 129.162 C 290.011 130.533, 284 136.145, 284 137.098 C 284 138.190, 289.931 140, 293.509 140 C 296.757 140, 309 134.352, 309 132.853 C 309 131.380, 301.144 127.999, 297.790 128.030 C 295.980 128.047, 293.600 128.556, 292.500 129.162 M 306.250 137.733 C 303.363 139.221, 301 140.746, 301 141.121 C 301 141.496, 302.688 142.802, 304.750 144.024 C 309.281 146.708, 316.677 146.910, 322.374 144.505 L 326.249 142.869 323.431 139.928 C 320.989 137.379, 315.679 134.994, 312.500 135.019 C 311.950 135.023, 309.137 136.245, 306.250 137.733 M 221.110 138.372 C 219.796 139.113, 218.124 140.796, 217.396 142.110 C 215.844 144.909, 215.542 156.599, 216.998 157.499 C 218.453 158.398, 223.542 155.108, 226.177 151.564 C 227.891 149.259, 228.461 147.138, 228.478 143 C 228.499 137.857, 228.338 137.485, 226 137.262 C 224.625 137.131, 222.425 137.631, 221.110 138.372 M 276 139.961 C 274.075 140.344, 270.413 140.453, 267.863 140.203 C 264.861 139.909, 261.603 140.368, 258.622 141.506 C 255.693 142.625, 252.720 143.054, 250.448 142.685 C 247.435 142.196, 246.174 142.644, 242.363 145.553 C 239.123 148.026, 236.808 149.003, 234.173 149.012 C 231.076 149.023, 230.142 149.577, 228.219 152.546 C 225.766 156.331, 220.610 159.990, 217.719 159.996 C 216.739 159.998, 215.698 160.787, 215.405 161.750 C 214.021 166.298, 211.378 170.221, 208.497 172.002 C 206.439 173.274, 204.862 175.389, 203.980 178.059 C 203.236 180.316, 201.198 183.363, 199.452 184.831 C 197.094 186.814, 196.139 188.588, 195.736 191.733 C 195.439 194.061, 194.251 197.916, 193.097 200.299 C 191.789 203.001, 191 206.594, 191 209.848 C 191 212.717, 190.331 216.665, 189.513 218.623 C 188.377 221.343, 188.288 222.670, 189.138 224.258 C 189.821 225.535, 190.011 228.623, 189.630 232.270 C 189.105 237.291, 189.328 238.651, 191.078 241.109 C 192.306 242.834, 193.383 246.346, 193.729 249.757 C 194.098 253.403, 195.123 256.595, 196.535 258.500 C 197.758 260.150, 199.656 263.566, 200.753 266.092 C 201.850 268.618, 204.153 271.685, 205.870 272.907 C 207.587 274.130, 210.162 277.126, 211.591 279.565 C 213.021 282.004, 214.821 284, 215.592 284 C 216.363 284, 218.738 285.575, 220.868 287.500 C 224.019 290.346, 225.538 291, 229.003 291 C 233.188 291, 240 294.148, 240 296.082 C 240 296.587, 241.912 297.010, 244.250 297.022 C 246.588 297.034, 250.390 297.902, 252.700 298.951 C 255.195 300.084, 259.124 300.857, 262.382 300.857 C 265.397 300.857, 268.803 301.359, 269.950 301.973 C 271.575 302.843, 272.521 302.749, 274.240 301.545 C 275.645 300.560, 278.665 300, 282.569 300 C 286.209 300, 290.009 299.343, 291.937 298.381 C 294.135 297.285, 296.758 296.914, 300.070 297.233 C 303.926 297.603, 305.306 297.319, 306.601 295.889 C 307.503 294.891, 309.875 293.548, 311.871 292.904 C 313.867 292.259, 316.681 290.325, 318.125 288.606 C 319.569 286.886, 322.786 284.463, 325.273 283.221 C 327.760 281.978, 330.598 279.733, 331.581 278.231 C 333.806 274.829, 334.816 273.814, 338.148 271.635 C 339.851 270.522, 341.036 268.620, 341.470 266.306 C 342.184 262.502, 344.098 259.027, 347.620 255.141 C 348.796 253.843, 350.030 250.798, 350.362 248.373 C 350.695 245.949, 351.649 242.646, 352.483 241.032 C 353.444 239.175, 354 235.347, 354 230.597 C 354 226.470, 354.516 221.961, 355.147 220.577 C 356.027 218.645, 356.006 217.712, 355.056 216.567 C 354.256 215.604, 353.930 212.625, 354.136 208.164 C 354.338 203.793, 354.012 200.720, 353.249 199.800 C 350.979 197.065, 348.854 190.718, 349.434 188.406 C 349.879 186.632, 349.105 185.168, 346.104 182.106 C 343.953 179.912, 341.672 176.537, 341.035 174.606 C 340.398 172.675, 339.039 170.830, 338.016 170.505 C 335.949 169.849, 329 162.545, 329 161.028 C 329 160.496, 326.554 158.497, 323.564 156.584 C 320.574 154.671, 317.633 152.182, 317.028 151.053 C 316.337 149.761, 314.923 148.996, 313.215 148.990 C 310.223 148.979, 300.642 144.847, 299.564 143.103 C 299.189 142.496, 296.713 142, 294.063 142 C 291.413 142, 287.629 141.325, 285.654 140.500 C 281.831 138.902, 281.425 138.880, 276 139.961 M 262 146.073 C 232.558 149.171, 207.047 171.795, 198.374 202.500 C 195.747 211.798, 196.025 230.291, 198.945 240.500 C 205.630 263.872, 222.372 282.405, 244.673 291.118 C 286.555 307.480, 334.448 282.114, 344.960 238 C 350.814 213.436, 343.973 187.804, 326.611 169.243 C 310.091 151.583, 287.301 143.410, 262 146.073 M 322.777 146.699 C 317.444 148.478, 317.471 149.421, 322.973 153.480 C 325.936 155.666, 327.422 156, 334.194 156 C 342.779 156, 343.581 155.280, 340.027 150.762 C 337.836 147.975, 332.199 144.967, 329.349 145.062 C 328.332 145.096, 325.375 145.832, 322.777 146.699 M 207.740 149.085 C 204.940 150.716, 202.821 156.920, 203.506 161.487 C 205.077 171.971, 205.265 172.253, 208.690 169.250 C 212.098 166.262, 213 163.398, 213 155.566 C 213 149.015, 212.765 148.004, 211.250 148.030 C 210.287 148.047, 208.708 148.522, 207.740 149.085 M 197.710 160.182 C 194.350 162.642, 190 170.854, 190 174.735 C 190 177.474, 194.297 185, 195.862 185 C 197.066 185, 200.477 180.832, 201.779 177.770 C 202.590 175.860, 202.660 173.455, 202.009 169.770 C 201.497 166.871, 200.949 163.069, 200.789 161.319 L 200.500 158.139 197.710 160.182 M 331 159.423 C 331 161.460, 335.742 166.815, 339.069 168.536 C 342.201 170.155, 355 170.581, 355 169.065 C 355 166.326, 352.677 162.853, 349.320 160.571 C 346.113 158.393, 344.426 158, 338.268 158 C 332.648 158, 331 158.323, 331 159.423 M 257.070 163.265 C 254.079 164.785, 252.799 169.125, 254.177 173.077 C 256.973 181.098, 269.020 178.739, 268.985 170.177 C 268.967 165.938, 268.343 164.743, 265.316 163.150 C 262.524 161.680, 260.121 161.714, 257.070 163.265 M 285.488 176.486 C 281.644 180.469, 274.450 186.364, 269.500 189.587 C 258.192 196.949, 253.607 201.168, 244.419 212.667 C 235.895 223.335, 233.303 226.060, 226.500 231.501 C 223.750 233.700, 221.275 235.763, 221 236.085 C 220.725 236.407, 219.718 237.097, 218.763 237.618 C 217.148 238.498, 217.183 238.790, 219.263 241.765 C 220.493 243.525, 221.885 244.973, 222.356 244.983 C 224.897 245.034, 241.250 229.765, 248.027 221.015 C 257.201 209.169, 262.854 203.799, 274 196.343 C 284.508 189.314, 289.355 185.244, 294.192 179.390 C 297.751 175.084, 297.866 174.726, 296.413 172.508 C 295.570 171.221, 294.339 169.960, 293.678 169.706 C 293.016 169.453, 289.331 172.504, 285.488 176.486 M 343.004 173.143 C 343.010 175.303, 346.692 180.759, 349.202 182.327 C 350.466 183.116, 353.884 184.022, 356.797 184.339 C 363.293 185.048, 363.973 183.988, 361.135 177.573 L 359.112 173 352.638 173 C 349.077 173, 345.452 172.727, 344.582 172.393 C 343.618 172.023, 343.001 172.316, 343.004 173.143 M 183.540 181.740 C 179.521 186.075, 180.120 190.419, 185.576 196.500 C 189.241 200.585, 190.239 201.225, 191.027 200 C 192.193 198.189, 193.994 192.080, 193.975 190 C 193.958 188.023, 188.268 179, 187.039 179 C 186.512 179, 184.938 180.233, 183.540 181.740 M 238 181.662 C 232.943 183.613, 231.554 190.645, 235.455 194.545 C 240.519 199.609, 249 196.189, 249 189.082 C 249 186.708, 248.327 184.701, 247.184 183.667 C 245.161 181.836, 240.301 180.775, 238 181.662 M 299 190.636 C 294.875 194.833, 287.203 201.084, 281.950 204.528 C 270.012 212.355, 265.383 216.802, 253.356 232 C 247.720 239.121, 243.037 243.695, 235.458 249.480 C 232.731 251.562, 230.611 253.543, 230.747 253.882 C 230.883 254.222, 231.929 255.765, 233.072 257.311 L 235.151 260.123 238.825 257.359 C 247.299 250.985, 252.435 246.025, 258.872 238 C 269.972 224.160, 275.568 218.511, 283.532 213.107 C 287.672 210.298, 291.268 208, 291.522 208 C 292.472 208, 297.722 203.338, 304.781 196.227 L 312.063 188.892 309.781 186.001 C 308.527 184.412, 307.275 183.087, 307 183.058 C 306.725 183.029, 303.125 186.439, 299 190.636 M 351.373 188.469 C 350.026 191.981, 354.598 198.784, 361.152 203.020 C 364.539 205.209, 367.915 207, 368.655 207 C 370.776 207, 370.260 201.100, 367.649 195.500 C 364.667 189.102, 363.329 188.063, 357.127 187.329 C 352.870 186.824, 351.933 187.010, 351.373 188.469 M 177.449 197.468 C 175.647 201.780, 175.639 203.231, 177.394 207.282 C 179.145 211.325, 186.494 219.630, 187.241 218.410 C 187.547 217.909, 188.312 215.582, 188.940 213.238 C 189.925 209.568, 189.813 208.389, 188.138 204.738 C 186.168 200.447, 181.083 194, 179.669 194 C 179.245 194, 178.246 195.561, 177.449 197.468 M 314.958 202.955 C 310.168 208.206, 297.040 219, 295.445 219 C 293.851 219, 279.971 230.411, 276.475 234.597 C 274.289 237.213, 272.044 239.837, 271.487 240.427 C 270.930 241.017, 268.166 244.428, 265.345 248.006 C 260.356 254.334, 251.321 262.770, 245.750 266.303 C 242.409 268.421, 242.391 268.726, 245.381 272.463 L 247.752 275.427 251.626 272.536 C 259.957 266.318, 267.680 258.528, 276 247.950 C 283.542 238.361, 290.462 232.009, 301.416 224.621 C 313.189 216.681, 325 205.841, 325 202.976 C 325 202.081, 323.961 200.372, 322.691 199.179 L 320.381 197.010 314.958 202.955 M 216.750 201.080 C 209.622 205.232, 213.036 216, 221.480 216 C 222.952 216, 225.214 214.877, 226.664 213.427 C 233.026 207.065, 224.565 196.528, 216.750 201.080 M 356 209.493 C 356 214.817, 356.179 215.174, 361.834 221.154 C 365.150 224.660, 368.147 227.027, 368.777 226.638 C 370.502 225.572, 371.332 217.536, 370.102 213.808 C 369.295 211.363, 367.549 209.599, 363.593 207.233 C 360.620 205.455, 357.695 204, 357.094 204 C 356.435 204, 356 206.184, 356 209.493 M 175.116 216.540 C 174.024 220.496, 174.587 225.767, 176.343 228.017 C 177.990 230.127, 184.668 235, 185.914 235 C 187.420 235, 188.324 230.539, 187.600 226.681 C 186.947 223.199, 179.351 213.155, 177.297 213.057 C 176.635 213.026, 175.654 214.593, 175.116 216.540 M 356.630 223.250 C 355.020 229.260, 355.954 234.287, 359.691 239.713 C 361.866 242.871, 364.006 244.953, 364.899 244.781 C 365.733 244.620, 366.982 242.530, 367.676 240.136 C 369.233 234.758, 367.914 230.982, 362.399 225.021 C 358.103 220.378, 357.453 220.178, 356.630 223.250 M 315.540 227.740 C 311.567 232.025, 312.459 237.053, 317.684 239.837 C 320.984 241.594, 323.599 241.249, 326.611 238.658 C 330.108 235.650, 330.268 230.979, 326.992 227.492 C 323.731 224.020, 318.893 224.125, 315.540 227.740 M 176.673 235.883 C 176.051 238.994, 177.521 245.658, 179.314 247.855 C 180.561 249.384, 191.079 254.255, 191.729 253.605 C 192.729 252.604, 190.599 243.759, 188.809 241.484 C 187.070 239.273, 178.852 233, 177.695 233 C 177.450 233, 176.991 234.297, 176.673 235.883 M 355.190 240.271 C 354.617 240.962, 353.621 243.618, 352.977 246.175 C 352.018 249.987, 352.086 251.785, 353.359 256.162 C 354.213 259.098, 355.591 262.400, 356.421 263.500 C 357.903 265.465, 357.972 265.448, 360.400 262.500 C 363.146 259.166, 364.547 253.300, 363.435 249.792 C 363.035 248.531, 361.251 245.591, 359.470 243.258 C 357.001 240.024, 355.984 239.314, 355.190 240.271 M 296.189 246.039 C 292.941 249.064, 293.101 256.181, 296.465 258.385 C 302.331 262.229, 309 258.904, 309 252.135 C 309 245.089, 301.195 241.375, 296.189 246.039 M 180.894 253.237 C 180.368 259.513, 182.622 264.780, 186.886 267.233 C 189.800 268.910, 200.013 270.510, 199.977 269.284 C 199.906 266.901, 194.068 258.339, 191.497 256.847 C 185.620 253.437, 181.009 251.867, 180.894 253.237 M 346.419 260.250 C 343.990 263.878, 343.595 265.407, 343.722 270.695 C 343.863 276.590, 345.190 281, 346.823 281 C 347.237 281, 349.039 279.762, 350.828 278.250 C 355.380 274.401, 355.979 269.706, 352.904 261.965 C 351.601 258.684, 350.249 256, 349.900 256 C 349.551 256, 347.985 257.913, 346.419 260.250 M 275.646 265.452 C 270.105 270.588, 273.579 279, 281.242 279 C 288.193 279, 291.540 270.449, 286.545 265.455 C 283.357 262.266, 279.085 262.265, 275.646 265.452 M 188 271.328 C 188 273.022, 191.243 278.887, 193.163 280.663 C 195.868 283.167, 196.387 283.277, 204.776 283.118 L 211.051 283 209.498 279.996 C 207.148 275.451, 201.480 272.314, 194.250 271.556 C 190.813 271.196, 188 271.093, 188 271.328 M 337.375 274.774 C 333.772 277.701, 332.258 281.225, 331.588 288.250 C 330.992 294.497, 331.090 295, 332.895 295 C 335.538 295, 340.466 290.704, 341.959 287.099 C 343.311 283.836, 342.256 273.899, 340.500 273.356 C 339.950 273.186, 338.544 273.824, 337.375 274.774 M 323.202 286.969 C 318.052 290.699, 317.132 292.442, 316.347 299.954 L 315.715 306 318.608 305.967 C 321.790 305.930, 324.573 303.940, 327.250 299.785 C 329.089 296.933, 329.826 284, 328.150 284 C 327.683 284, 325.456 285.336, 323.202 286.969 M 201.705 285.721 C 199.379 286.071, 199.014 286.507, 199.531 288.321 C 200.355 291.214, 205.585 295.708, 209.716 297.071 C 212.630 298.033, 213.589 297.845, 217.519 295.542 C 219.984 294.097, 222 292.563, 222 292.132 C 222 290.558, 217.231 286.927, 213.917 285.976 C 210.517 285.001, 206.975 284.927, 201.705 285.721 M 175.848 293.815 C 165.716 301.758, 165.689 300.834, 176.373 311.843 C 201.874 338.116, 234.605 352.005, 270.998 351.997 C 308.265 351.988, 338.919 339.287, 365.121 312.999 C 377.542 300.537, 377.406 301.499, 367.743 294.438 C 363.273 291.172, 358.976 288.111, 358.194 287.636 C 357.157 287.007, 354.877 288.717, 349.779 293.947 C 333.884 310.257, 317.492 319.724, 295.500 325.293 C 284.452 328.092, 258.752 328.299, 248.500 325.673 C 225.559 319.795, 210.079 311.177, 194.797 295.773 C 190.010 290.948, 185.735 287.007, 185.297 287.016 C 184.859 287.024, 180.606 290.084, 175.848 293.815 M 220.680 296.601 C 213.744 300.940, 214.150 302.041, 223.561 304.405 L 230.068 306.039 234.034 302.852 C 238.699 299.104, 238.911 297.862, 235.365 295.073 C 231.496 292.029, 227.290 292.467, 220.680 296.601 M 310.500 295.841 C 308.850 296.851, 305.568 300.436, 303.207 303.809 L 298.914 309.940 301.464 310.580 C 309.456 312.586, 314.348 307.976, 313.801 298.955 L 313.500 294.005 310.500 295.841 M 182.031 300.468 C 178.660 303.904, 177.871 305.271, 178.753 306.153 C 179.636 307.036, 180.292 307.003, 181.482 306.015 C 183.614 304.246, 184.423 305.342, 182.978 308.042 C 182.036 309.800, 182.071 310.430, 183.147 311.109 C 184.600 312.026, 187 309.659, 187 307.309 C 187 306.589, 187.605 306, 188.345 306 C 189.085 306, 190.514 305.089, 191.522 303.976 C 193.301 302.010, 193.295 301.872, 191.321 299.226 C 190.203 297.727, 188.654 296.375, 187.880 296.222 C 187.105 296.069, 184.473 297.980, 182.031 300.468 M 243.500 299.739 C 240.163 300.575, 232.910 306.293, 233.214 307.848 C 233.371 308.650, 235.164 310.169, 237.199 311.224 C 240.654 313.016, 241.114 313.038, 244.199 311.548 C 246.014 310.671, 249.254 308.374, 251.397 306.444 C 255.120 303.092, 255.209 302.871, 253.397 301.499 C 252.354 300.710, 250.749 300.049, 249.832 300.032 C 248.914 300.014, 247.564 299.828, 246.832 299.619 C 246.099 299.409, 244.600 299.463, 243.500 299.739 M 294.542 299.729 C 293.465 300.003, 291.623 300.856, 290.450 301.625 C 287.492 303.563, 280.680 313.673, 281.470 314.952 C 282.417 316.484, 289.224 316.232, 291.585 314.578 C 293.804 313.024, 302 301.527, 302 299.969 C 302 298.974, 298.020 298.846, 294.542 299.729 M 351.583 299.866 C 351.288 300.343, 351.937 301.538, 353.024 302.521 C 355.556 304.813, 355.582 306.382, 353.066 305.035 C 350.543 303.685, 347.295 303.714, 346.442 305.093 C 345.667 306.348, 353.759 315, 355.708 315 C 357.568 315, 357.309 313.966, 354.750 311.177 L 352.500 308.726 355 309.234 C 356.375 309.514, 358.284 310.072, 359.242 310.475 C 360.424 310.972, 361.190 310.669, 361.627 309.530 C 362.070 308.374, 360.919 306.474, 357.927 303.426 C 353.479 298.893, 352.517 298.354, 351.583 299.866 M 186.667 300.667 C 185.516 301.817, 185.938 303, 187.500 303 C 188.325 303, 189 302.325, 189 301.500 C 189 299.938, 187.817 299.516, 186.667 300.667 M 273.400 304.897 C 268.876 308.257, 264 313.388, 264 314.789 C 264 315.322, 265.415 316.343, 267.144 317.060 C 269.900 318.201, 270.729 318.124, 273.865 316.431 C 277.040 314.717, 285 304.994, 285 302.829 C 285 302.373, 283.268 302, 281.150 302 C 278.467 302, 276.118 302.878, 273.400 304.897 M 253.236 308.045 C 249.806 310.820, 247 313.485, 247 313.968 C 247 315.747, 253.561 317.117, 256.606 315.973 C 259.958 314.714, 269 306.189, 269 304.288 C 269 303.418, 267.455 303, 264.236 303 C 260.003 303, 258.775 303.563, 253.236 308.045 M 193.495 305.387 C 192.948 306.149, 191.188 308.427, 189.584 310.448 L 186.669 314.123 189.230 316.685 C 192.258 319.712, 195.183 318.964, 192.389 315.877 C 190.145 313.397, 191.959 310.891, 194.482 312.985 C 196.568 314.716, 197.730 313.399, 196.233 311.001 C 195.552 309.911, 195.431 308.852, 195.951 308.530 C 196.452 308.221, 197.144 308.425, 197.490 308.984 C 198.329 310.341, 201 310.286, 201 308.910 C 201 307.647, 196.977 304.082, 195.495 304.033 C 194.942 304.015, 194.042 304.624, 193.495 305.387 M 167.121 309.812 C 167.566 312.391, 168.198 316.637, 168.526 319.250 C 169.071 323.587, 169.356 324.001, 171.811 324.011 C 173.290 324.017, 176.075 324.258, 178 324.547 C 185.205 325.629, 184.724 323.819, 175.247 314.197 L 166.312 305.125 167.121 309.812 M 367.072 314.120 C 362.437 318.992, 358.837 323.149, 359.072 323.358 C 359.308 323.567, 362.491 325.311, 366.146 327.234 L 372.793 330.730 373.854 325.115 C 375.054 318.762, 376.456 304.932, 375.879 305.131 C 375.671 305.203, 371.708 309.248, 367.072 314.120 M 340.250 309.674 C 339.012 310.538, 338 311.681, 338 312.215 C 338 313.413, 345.236 322.899, 346.194 322.957 C 347.864 323.060, 352.271 318.248, 351.561 317.099 C 350.986 316.168, 350.346 316.282, 348.922 317.571 C 347.151 319.174, 347.003 319.172, 346.375 317.535 C 345.995 316.544, 346.255 315.460, 346.982 315.011 C 349.066 313.723, 347.195 311.825, 345 313 C 342.655 314.255, 341.474 312.681, 343.500 311 C 344.313 310.325, 344.731 309.374, 344.430 308.887 C 343.686 307.683, 342.891 307.832, 340.250 309.674 M 199.546 315.644 C 197.596 318.198, 196 320.921, 196 321.695 C 196 322.469, 197.557 323.753, 199.460 324.548 C 203.763 326.346, 207.442 324.979, 209.616 320.776 C 211.165 317.780, 210.928 316.862, 207.677 313.250 C 204.787 310.040, 203.546 310.405, 199.546 315.644 M 331.714 315.641 C 327.858 318.119, 327.570 320, 331.046 320 C 332.209 320, 333.978 321.589, 335.500 324 C 336.889 326.200, 338.443 328, 338.954 328 C 341.142 328, 340.845 325.843, 338.101 321.819 C 335.914 318.612, 335.438 317.178, 336.239 316.212 C 338.402 313.605, 335.459 313.234, 331.714 315.641 M 160 319.500 L 155.584 324 160.792 324 L 166 324 166 319.500 C 166 317.025, 165.644 315, 165.208 315 C 164.773 315, 162.429 317.025, 160 319.500 M 202.068 317.904 C 199.431 321.608, 199.469 322, 202.465 322 C 205.142 322, 207.520 318.798, 206.608 316.422 C 205.773 314.244, 204.341 314.712, 202.068 317.904 M 377.621 317.182 C 376.782 321.499, 375.221 331.499, 375.361 331.663 C 375.516 331.846, 393.962 332.241, 395.446 332.094 C 396.622 331.977, 391.328 326.414, 383.786 319.843 C 378.338 315.096, 378.051 314.973, 377.621 317.182 M 212.534 321.946 C 209.170 327.274, 208.289 331, 210.392 331 C 211.276 331, 212 330.380, 212 329.622 C 212 328.865, 212.648 327.707, 213.439 327.051 C 214.647 326.048, 214.928 326.538, 215.189 330.100 C 215.360 332.435, 215.965 334.497, 216.533 334.683 C 217.522 335.008, 224 324.794, 224 322.910 C 224 320.909, 220.973 322.167, 219.572 324.750 L 218.080 327.500 218.040 323.357 C 217.984 317.534, 215.690 316.947, 212.534 321.946 M 322.596 321.306 C 321.498 322.109, 320.943 323.554, 321.155 325.056 C 321.421 326.940, 322.360 327.712, 325.250 328.426 C 329.504 329.477, 329.935 330.429, 326.893 332.057 C 325.413 332.849, 325.100 333.500, 325.841 334.241 C 327.506 335.906, 332 332.455, 332 329.512 C 332 326.850, 329.510 325.020, 325.816 324.967 L 323.500 324.933 325.707 323.091 C 329.075 320.280, 326.231 318.648, 322.596 321.306 M 226.274 325.208 C 224.304 327.652, 220.922 336.065, 221.520 337.032 C 222.722 338.977, 223.783 337.876, 226.464 331.901 C 228.179 328.080, 228.849 325.449, 228.258 324.858 C 227.668 324.268, 226.926 324.398, 226.274 325.208 M 313.750 325.162 C 312.238 325.715, 311 326.748, 311 327.459 C 311 329.130, 315.799 340, 316.537 340 C 316.846 340, 318.427 339.313, 320.050 338.474 C 323.680 336.597, 323.946 334.586, 320.476 335.249 C 317.486 335.821, 316.014 334.131, 318.360 332.819 C 321.072 331.301, 320.421 328.856, 317.500 329.589 C 314.769 330.275, 313.908 328.356, 316.500 327.362 C 317.325 327.045, 318 326.159, 318 325.393 C 318 323.799, 317.549 323.775, 313.750 325.162 M 230.686 328.750 C 230.385 329.712, 229.454 332.637, 228.617 335.250 C 227.282 339.419, 227.276 340, 228.573 340 C 229.385 340, 230.554 338.762, 231.171 337.250 L 232.293 334.500 233.487 338.500 C 234.143 340.700, 235.295 342.500, 236.046 342.500 C 237.641 342.500, 242.166 330.220, 240.866 329.417 C 239.430 328.529, 238.084 329.919, 237.106 333.299 L 236.180 336.500 236.090 333.684 C 235.914 328.169, 231.989 324.586, 230.686 328.750 M 305.331 331.650 L 305.923 335.300 303.043 332.541 C 300.253 329.868, 298 329.795, 298 332.378 C 298 335.860, 301.210 344, 302.584 344 C 303.779 344, 303.950 343.224, 303.413 340.250 L 302.736 336.500 304.941 339.250 C 306.153 340.762, 308.063 342, 309.184 342 C 310.998 342, 311.145 341.587, 310.520 338.250 C 309.524 332.937, 307.308 328, 305.920 328 C 305.119 328, 304.929 329.175, 305.331 331.650 M 248 331.790 C 244.773 332.803, 243 335.360, 243 339 C 243 343.476, 245.434 346, 249.749 346 C 252.366 346, 252.942 345.543, 253.495 343.024 C 254.282 339.441, 253.544 338, 250.922 338 C 249.311 338, 249.078 338.462, 249.614 340.599 C 250.160 342.774, 249.959 343.140, 248.383 342.840 C 246.120 342.411, 245.296 337.827, 247.199 336.253 C 247.915 335.661, 249.850 335.025, 251.500 334.838 C 253.150 334.652, 254.379 334.050, 254.231 333.500 C 253.892 332.240, 249.985 331.168, 248 331.790 M 287.343 333.550 C 287.015 334.402, 287.323 337.812, 288.027 341.126 C 289.168 346.503, 289.532 347.093, 291.403 346.590 C 292.556 346.281, 294.288 346.021, 295.250 346.014 C 296.212 346.006, 297 345.325, 297 344.500 C 297 343.567, 296.056 343, 294.500 343 C 292.944 343, 292 342.433, 292 341.500 C 292 340.675, 292.675 340, 293.500 340 C 294.325 340, 295 339.273, 295 338.383 C 295 337.259, 294.391 336.926, 293 337.290 C 291.735 337.620, 291 337.320, 291 336.474 C 291 335.737, 291.900 334.849, 293 334.500 C 296.212 333.480, 295.305 332, 291.469 332 C 289.202 332, 287.724 332.555, 287.343 333.550 M 258.977 335.023 C 256.826 337.174, 257.282 339.329, 260.445 341.955 C 262.516 343.673, 262.418 345.168, 260.250 344.948 C 256.358 344.552, 255.669 344.896, 257.042 346.551 C 258.774 348.638, 262.947 347.994, 264.676 345.374 C 265.937 343.463, 265.822 342.942, 263.540 340.230 C 260.479 336.592, 260.342 335.595, 263 336.290 C 265.404 336.918, 265.779 334.513, 263.418 333.607 C 261.224 332.765, 261.240 332.760, 258.977 335.023 M 281.429 334.115 C 281.080 334.680, 281.083 337.066, 281.435 339.417 C 281.917 342.631, 281.695 344.008, 280.538 344.968 C 278.480 346.677, 278.594 348, 280.800 348 C 283.869 348, 285 345.820, 285 339.907 C 285 335.824, 284.585 334.055, 283.532 333.651 C 282.725 333.341, 281.778 333.550, 281.429 334.115 M 268 335.500 C 268 336.325, 268.675 337, 269.500 337 C 270.652 337, 271 338.278, 271 342.500 C 271 346.722, 271.348 348, 272.500 348 C 273.652 348, 274 346.722, 274 342.500 C 274 338.278, 274.348 337, 275.500 337 C 276.325 337, 277 336.325, 277 335.500 C 277 334.389, 275.833 334, 272.500 334 C 269.167 334, 268 334.389, 268 335.500 M 60 358.699 C 54.874 360.550, 53.412 368.503, 57.455 372.545 C 59.760 374.851, 60.570 375, 70.801 375 C 76.791 375, 85.812 375.292, 90.846 375.650 L 100 376.299 100 428.068 C 100 456.541, 100.280 480.565, 100.621 481.455 C 101.419 483.535, 106.182 486, 109.403 486 C 112.960 486, 116.594 484.135, 117.900 481.640 C 118.676 480.158, 119.094 463.508, 119.260 427.500 L 119.500 375.500 139.595 375.230 C 159.594 374.961, 159.701 374.948, 162.045 372.452 C 165.434 368.844, 165.256 363.477, 161.644 360.370 L 158.888 358 110.194 358.079 C 83.412 358.122, 60.825 358.402, 60 358.699" stroke="none" fill="black" fill-rule="evenodd"/>
</svg>