<svg xmlns="http://www.w3.org/2000/svg" width="532" height="532" viewBox="0 0 532 532" version="1.1">
	<path d="M 81 10.063 C 72.638 12.240, 59.457 18.233, 52.241 23.140 C 45.422 27.777, 32.504 40.499, 27.432 47.572 C 21.543 55.785, 15.447 68.820, 13.010 78.410 C 11.034 86.186, 11 89.312, 11 263.500 C 11 437.542, 11.036 440.820, 13.005 448.590 C 14.108 452.941, 17.143 460.775, 19.749 466 L 24.487 475.500 24.797 469.632 C 25.036 465.106, 24.351 461.445, 21.803 453.632 L 18.500 443.500 18.500 263 L 18.500 82.500 21.306 74.500 C 26.196 60.556, 31.379 52.614, 43.496 40.496 C 55.614 28.379, 63.556 23.196, 77.500 18.306 L 85.500 15.500 262 15.223 C 379.193 15.039, 440.749 15.291, 445.194 15.973 C 470.615 19.875, 498.433 42.528, 509.162 68.063 C 515.299 82.669, 515 72.694, 515 263.108 C 515 453.219, 515.261 444.248, 509.310 458.498 C 501.254 477.789, 481.305 497.892, 462.221 505.952 C 446.884 512.430, 458.565 512.086, 264 511.779 C 64.502 511.464, 82.672 512.234, 65.267 503.353 C 59.625 500.474, 55.448 499, 52.933 499 C 50.841 499, 47.976 498.561, 46.565 498.025 C 42.606 496.519, 43.454 497.509, 50.322 502.410 C 58.801 508.461, 71.756 514.537, 81.410 516.990 C 89.187 518.966, 92.283 519, 265.910 518.983 C 456.724 518.964, 448.296 519.191, 461.916 513.690 C 475.038 508.390, 483.121 502.887, 494.504 491.504 C 505.887 480.121, 511.390 472.038, 516.690 458.916 C 522.191 445.296, 521.964 453.724, 521.983 262.910 C 522 89.283, 521.966 86.187, 519.990 78.410 C 517.785 69.733, 511.892 56.641, 506.860 49.241 C 502.223 42.422, 489.501 29.504, 482.428 24.432 C 474.215 18.543, 461.180 12.447, 451.590 10.010 C 443.809 8.033, 440.783 8.001, 266.090 8.055 C 93.260 8.109, 88.299 8.162, 81 10.063 M 255 67.552 C 235.146 71.184, 218.924 82.387, 211.959 97.277 C 203.295 115.797, 207.455 138.599, 222.132 153.051 L 228.039 158.867 222.770 162.369 C 202.588 175.780, 193.583 194.210, 196.114 216.922 C 198.475 238.104, 212.166 251.953, 255.466 276.959 C 276.688 289.214, 284.694 294.873, 292.458 303.103 C 302.755 314.018, 304.367 323.528, 297.853 334.933 C 294.464 340.867, 288.482 345.167, 280 347.765 C 271.403 350.399, 253.083 349.915, 241 346.735 C 233.125 344.662, 219.843 340.034, 211.723 336.532 C 210.059 335.814, 209.964 336.728, 210.223 351.043 L 210.500 366.320 217 368.206 C 249.232 377.560, 280.699 378.414, 300.284 370.466 C 322.574 361.420, 335 343.449, 335 320.258 C 335 306.344, 330.748 296.585, 319.809 285.392 L 313.839 279.284 318.668 276.454 C 325.635 272.371, 338.001 259.510, 341.218 253 C 348.891 237.476, 348.902 219.032, 341.247 204.575 C 334.843 192.481, 316.165 177.922, 282.058 158.439 C 250.427 140.370, 239.747 129.226, 241.322 115.931 C 243.147 100.516, 255.531 92.528, 277.500 92.596 C 292.210 92.641, 307.597 96.654, 328.250 105.833 C 328.663 106.017, 329 99.368, 329 91.059 L 329 75.950 326.267 74.912 C 320.352 72.663, 303.995 68.831, 294.500 67.470 C 282.137 65.698, 264.938 65.733, 255 67.552 M 238.688 179.250 C 228.831 188.860, 225.570 195.126, 225.545 204.500 C 225.503 219.982, 234.349 230.474, 261.545 247.198 C 276.366 256.311, 293.808 266, 295.394 266 C 296.209 266, 300.207 262.738, 304.279 258.750 C 313.802 249.424, 317.396 242.416, 317.310 233.337 C 317.187 220.248, 308.665 209.180, 288.324 195.693 C 277.124 188.267, 248.917 172, 247.240 172 C 246.626 172, 242.778 175.262, 238.688 179.250 M 50.326 345.020 C 48.031 345.487, 44.820 346.559, 43.191 347.401 C 38.956 349.591, 32.198 357.627, 31.017 361.877 C 29.516 367.284, 29.660 471.132, 31.176 476.193 C 32.720 481.346, 38.938 488.308, 44.327 490.916 C 48.536 492.954, 49.889 493, 105.566 492.978 C 169.658 492.953, 166.944 493.257, 174.109 485.310 C 181.251 477.387, 181.098 478.948, 180.782 417.500 C 180.523 366.923, 180.356 362.210, 178.704 358.892 C 176.344 354.154, 171.579 349.361, 166.553 346.670 C 162.550 344.527, 161.840 344.498, 108.500 344.336 C 78.800 344.245, 52.622 344.553, 50.326 345.020 M 62.364 366.170 C 60.226 367.205, 58 370.912, 58 373.436 C 58 374.174, 58.859 375.841, 59.909 377.139 C 61.751 379.417, 62.432 379.518, 79.159 380 L 96.500 380.500 96.743 425.500 C 96.984 469.969, 97.011 470.521, 99.104 472.250 C 102.227 474.831, 107.590 474.501, 110.545 471.545 L 113 469.091 113 424.545 L 113 380 128.953 380 C 138.747 380, 145.870 379.561, 147.403 378.862 C 152.289 376.636, 152.535 369.889, 147.849 366.607 C 145.830 365.192, 140.705 365.008, 105.027 365.068 C 79.300 365.111, 63.720 365.513, 62.364 366.170" stroke="none" fill="black" fill-rule="evenodd"/>
</svg>