<svg xmlns="http://www.w3.org/2000/svg" width="512" height="512" viewBox="0 0 512 512" version="1.1">
	<path d="M 75.500 1.652 C 38.832 9.535, 6.848 43.190, 1.041 80 C -0.373 88.957, -0.373 423.043, 1.041 432 C 6.605 467.268, 36.103 499.555, 72 509.669 C 78.189 511.413, 86.981 511.500, 256 511.500 C 456.985 511.500, 437.374 512.329, 456.500 503.027 C 484.617 489.353, 507.875 458.993, 510.721 432.250 C 511.028 429.363, 511.667 427, 512.140 427 C 512.617 427, 513 350.322, 513 254.941 C 513 158.365, 512.620 83.117, 512.135 83.417 C 511.659 83.711, 510.992 81.590, 510.653 78.704 C 508.117 57.126, 490.411 30.540, 468.806 15.868 C 461.572 10.956, 448.812 4.865, 440.500 2.357 C 434.819 0.642, 425.156 0.536, 258.500 0.346 C 105.043 0.172, 81.603 0.339, 75.500 1.652 M 76 17.567 C 67.480 19.790, 53.199 27.290, 45.762 33.446 C 32.221 44.656, 21.872 60.360, 17.968 75.623 C 16.048 83.133, 16 87.515, 16 256 C 16 425.422, 16.038 428.828, 18.001 436.502 C 23.582 458.324, 41.348 479.186, 63.080 489.437 C 78.014 496.481, 63.875 496, 256 496 C 448.852 496, 433.998 496.527, 449.500 489.132 C 465.800 481.356, 480.999 466.160, 488.967 449.674 C 496.475 434.139, 495.969 448.102, 495.985 255.910 C 496 87.489, 495.952 83.134, 494.032 75.623 C 487.271 49.188, 462.151 24.230, 435.540 17.506 C 426.782 15.293, 84.490 15.351, 76 17.567 M 0.489 256 C 0.489 350.875, 0.606 389.688, 0.750 342.250 C 0.894 294.813, 0.894 217.188, 0.750 169.750 C 0.606 122.313, 0.489 161.125, 0.489 256 M 156 176.050 L 156 203.100 161.717 202.800 L 167.434 202.500 169.654 185.146 C 170.876 175.601, 172.057 167.610, 172.278 167.388 C 173.506 166.161, 190.578 164.886, 213.250 164.329 L 239 163.696 239 263.655 L 239 363.614 223.750 365.407 C 201.372 368.038, 203 367.472, 203 372.625 L 203 377 255.500 377 L 308 377 308 372.500 C 308 369.607, 307.554 367.973, 306.750 367.924 C 306.063 367.882, 298.075 366.869, 289 365.674 L 272.500 363.500 272.245 263.601 L 271.990 163.701 295.245 164.416 C 317.396 165.098, 338.838 166.505, 339.665 167.331 C 339.876 167.543, 341.050 175.542, 342.274 185.108 L 344.500 202.500 350.250 202.800 L 356 203.100 356 176.050 L 356 149 256 149 L 156 149 156 176.050" stroke="none" fill="black" fill-rule="evenodd"/>
</svg>